<svg width="100" height="90" viewBox="0 0 100 90" fill="none" xmlns="http://www.w3.org/2000/svg">
<rect x="0.5" y="0.5" width="99" height="89" rx="5.5" fill="#212B36"/>
<path d="M19.1113 31.2C18.2313 31.2 17.4646 31.0333 16.8113 30.7C16.1713 30.3667 15.6713 29.8867 15.3113 29.26C14.9646 28.62 14.7913 27.8667 14.7913 27V20.4C14.7913 19.52 14.9646 18.7667 15.3113 18.14C15.6713 17.5133 16.1713 17.0333 16.8113 16.7C17.4646 16.3667 18.2313 16.2 19.1113 16.2C19.9913 16.2 20.7513 16.3733 21.3913 16.72C22.0313 17.0533 22.5246 17.5333 22.8713 18.16C23.2179 18.7867 23.3913 19.5333 23.3913 20.4H21.5913C21.5913 19.5733 21.3713 18.94 20.9313 18.5C20.5046 18.0467 19.8979 17.82 19.1113 17.82C18.3246 17.82 17.7046 18.04 17.2513 18.48C16.8113 18.92 16.5913 19.5533 16.5913 20.38V27C16.5913 27.8267 16.8113 28.4667 17.2513 28.92C17.7046 29.36 18.3246 29.58 19.1113 29.58C19.8979 29.58 20.5046 29.36 20.9313 28.92C21.3713 28.4667 21.5913 27.8267 21.5913 27H23.3913C23.3913 27.8533 23.2179 28.6 22.8713 29.24C22.5246 29.8667 22.0313 30.3533 21.3913 30.7C20.7513 31.0333 19.9913 31.2 19.1113 31.2ZM32.2234 31C31.2768 31 30.5368 30.7467 30.0034 30.24C29.4834 29.7333 29.2234 29.02 29.2234 28.1V21.64H26.1234V20H29.2234V16.9H31.0234V20H35.4234V21.64H31.0234V28.1C31.0234 28.94 31.4234 29.36 32.2234 29.36H35.2234V31H32.2234ZM39.2356 31V20H40.9956V22.1H41.4156L40.8356 23.4C40.8356 22.2133 41.089 21.32 41.5956 20.72C42.1156 20.1067 42.8823 19.8 43.8956 19.8C45.0556 19.8 45.9756 20.1667 46.6556 20.9C47.349 21.62 47.6956 22.6 47.6956 23.84V24.5H45.8956V24C45.8956 23.1333 45.6823 22.4733 45.2556 22.02C44.8423 21.5533 44.249 21.32 43.4756 21.32C42.7156 21.32 42.1156 21.5533 41.6756 22.02C41.249 22.4867 41.0356 23.1467 41.0356 24V31H39.2356ZM56.5078 31C55.8678 31 55.3078 30.8733 54.8278 30.62C54.3478 30.3667 53.9745 30.0067 53.7078 29.54C53.4411 29.0733 53.3078 28.5267 53.3078 27.9V18.04H49.6078V16.4H55.1078V27.9C55.1078 28.3533 55.2345 28.7133 55.4878 28.98C55.7411 29.2333 56.0811 29.36 56.5078 29.36H60.0078V31H56.5078Z" fill="white"/>
<rect x="0.5" y="0.5" width="99" height="89" rx="5.5" stroke="#48515B"/>
</svg>
