<svg width="100" height="90" viewBox="0 0 100 90" fill="none" xmlns="http://www.w3.org/2000/svg">
<rect x="0.5" y="0.5" width="99" height="89" rx="5.5" fill="#212B36"/>
<path d="M17.7335 35.24C16.5655 35.24 15.5415 35.024 14.6615 34.592C13.7815 34.144 13.0935 33.528 12.5975 32.744C12.1175 31.944 11.8775 31.016 11.8775 29.96V22.52C11.8775 21.448 12.1175 20.52 12.5975 19.736C13.0935 18.952 13.7815 18.344 14.6615 17.912C15.5415 17.464 16.5655 17.24 17.7335 17.24C18.9175 17.24 19.9415 17.464 20.8055 17.912C21.6855 18.344 22.3655 18.952 22.8455 19.736C23.3415 20.52 23.5895 21.448 23.5895 22.52H19.9895C19.9895 21.816 19.7895 21.28 19.3895 20.912C19.0055 20.544 18.4535 20.36 17.7335 20.36C17.0135 20.36 16.4535 20.544 16.0535 20.912C15.6695 21.28 15.4775 21.816 15.4775 22.52V29.96C15.4775 30.648 15.6695 31.184 16.0535 31.568C16.4535 31.936 17.0135 32.12 17.7335 32.12C18.4535 32.12 19.0055 31.936 19.3895 31.568C19.7895 31.184 19.9895 30.648 19.9895 29.96H23.5895C23.5895 31.016 23.3415 31.944 22.8455 32.744C22.3655 33.528 21.6855 34.144 20.8055 34.592C19.9415 35.024 18.9175 35.24 17.7335 35.24ZM33.4681 35C32.1241 35 31.0681 34.616 30.3001 33.848C29.5321 33.08 29.1481 32.024 29.1481 30.68V25.04H25.6681V21.8H29.1481V18.08H32.7481V21.8H37.6681V25.04H32.7481V30.68C32.7481 31.4 33.1081 31.76 33.8281 31.76H37.4281V35H33.4681ZM41.1868 35V21.8H44.5468V24.32H45.4588L44.4268 25.856C44.4268 24.432 44.7548 23.36 45.4108 22.64C46.0668 21.92 47.0268 21.56 48.2908 21.56C49.7468 21.56 50.8748 22 51.6748 22.88C52.4908 23.76 52.8988 25 52.8988 26.6V27.68H49.0588V26.84C49.0588 26.12 48.8588 25.56 48.4588 25.16C48.0748 24.76 47.5548 24.56 46.8988 24.56C46.2108 24.56 45.6828 24.76 45.3148 25.16C44.9628 25.56 44.7868 26.12 44.7868 26.84V35H41.1868ZM62.9694 35C62.0414 35 61.2254 34.808 60.5214 34.424C59.8174 34.024 59.2654 33.472 58.8654 32.768C58.4814 32.064 58.2894 31.248 58.2894 30.32V20.72H54.2094V17.48H61.8894V30.32C61.8894 30.752 62.0174 31.104 62.2734 31.376C62.5454 31.632 62.8974 31.76 63.3294 31.76H67.1694V35H62.9694Z" fill="white"/>
<rect x="0.5" y="0.5" width="99" height="89" rx="5.5" stroke="#48515B"/>
</svg>
